<svg data-v-423bf9ae="" xmlns="http://www.w3.org/2000/svg" viewBox="0 0 488 91" class="iconLeft"><!----><!----><!----><g data-v-423bf9ae="" id="0e55ec21-c6ae-48f7-b5a1-05b4f7354df4" fill="#335eea" transform="matrix(3.8289727734183505,0,0,3.8289727734183505,75.06571314245608,4.585399225150901)"><path d="M9.88 13.29L9.81 13.26C9.77 13.24 9.70 13.19 9.62 13.13C9.39 12.95 9.15 12.68 8.90 12.31C8.56 11.79 8.22 11.13 7.88 10.33C7.66 9.80 7.29 9.33 6.87 8.97C6.45 8.64 5.99 8.40 5.60 8.32C6.25 8.23 6.77 8.00 7.15 7.64C7.56 7.26 7.76 6.75 7.76 6.11C7.76 5.53 7.60 5.05 7.28 4.68C6.94 4.28 6.46 4.05 5.84 3.97C5.51 3.91 5.18 3.86 4.87 3.84C4.61 3.82 4.37 3.81 4.14 3.81C3.91 3.81 3.58 3.82 3.16 3.84C2.90 3.86 2.59 3.87 2.23 3.87L1.06 3.87C1.08 4.12 1.11 4.45 1.15 4.88C1.21 5.64 1.24 6.36 1.24 7.04L1.24 10.08C1.24 10.48 1.23 10.89 1.22 11.30C1.19 12.07 1.16 12.71 1.13 13.22L1.10 13.53L3.58 13.53C3.53 13.13 3.50 12.80 3.49 12.53C3.43 11.85 3.40 11.13 3.40 10.38L3.40 4.67C3.59 4.67 3.72 4.67 3.79 4.66C3.86 4.66 3.96 4.66 4.11 4.66C4.66 4.68 5.05 4.78 5.31 5.01C5.60 5.25 5.75 5.66 5.75 6.22C5.75 6.67 5.63 7.04 5.41 7.31C5.24 7.52 5.00 7.67 4.70 7.75C4.49 7.81 4.28 7.83 4.05 7.83L3.83 7.83L4.03 8.64C4.19 8.65 4.37 8.73 4.56 8.86C4.73 8.98 4.91 9.17 5.09 9.42C5.31 9.74 5.50 10.11 5.68 10.54C6.34 12.38 7.22 13.41 8.30 13.62C8.49 13.65 8.69 13.66 8.88 13.66C9.11 13.66 9.32 13.64 9.50 13.60C9.61 13.58 9.73 13.54 9.85 13.49ZM13.92 7.22C13.27 7.22 12.66 7.32 12.10 7.53C11.48 7.77 11.00 8.12 10.65 8.57C10.26 9.10 10.07 9.75 10.07 10.51C10.07 11.59 10.48 12.42 11.19 12.97C11.84 13.50 12.75 13.76 13.76 13.76C14.15 13.76 14.57 13.68 14.99 13.52C15.39 13.38 15.70 13.22 15.84 13.06L15.69 12.34C15.51 12.47 15.29 12.58 15.04 12.67C14.65 12.82 14.28 12.89 13.92 12.89C13.47 12.89 13.05 12.69 12.73 12.32C12.40 11.92 12.19 11.33 12.18 10.58L12.18 10.43C12.18 10.39 12.19 10.35 12.19 10.28L15.51 10.28L15.96 10.28C16.07 10.28 16.21 10.28 16.40 10.28L16.79 10.28C16.86 10.29 16.96 10.29 17.07 10.29L17.22 9.54L17.07 9.54C17.01 9.55 16.91 9.55 16.77 9.55L16.41 9.55C16.34 9.55 16.24 9.55 16.13 9.55C16.41 9.44 16.56 9.21 16.56 8.72C16.56 8.38 16.41 8.08 16.11 7.83C15.86 7.63 15.51 7.47 15.07 7.36C14.70 7.27 14.32 7.22 13.92 7.22ZM13.89 8.09C14.53 8.09 14.92 8.42 14.92 8.97C14.92 9.18 14.84 9.33 14.67 9.42C14.54 9.49 14.37 9.53 14.15 9.53C13.74 9.53 13.43 9.53 13.22 9.52L12.27 9.52C12.38 9.05 12.62 8.68 12.92 8.44C13.20 8.21 13.55 8.09 13.89 8.09ZM24.65 12.74L24.44 12.79C24.39 12.80 24.34 12.81 24.29 12.81L24.24 12.81C24.07 12.80 23.95 12.71 23.88 12.50C23.83 12.36 23.80 12.14 23.80 11.87L23.80 9.69C23.80 8.86 23.66 8.27 23.32 7.87C22.95 7.44 22.34 7.22 21.39 7.22C20.95 7.22 20.48 7.29 19.96 7.44C19.40 7.60 18.93 7.83 18.55 8.11L18.75 8.84C19.03 8.62 19.31 8.45 19.60 8.32C20.01 8.12 20.40 8.02 20.75 8.02C21.15 8.02 21.43 8.16 21.59 8.43C21.71 8.64 21.78 8.97 21.78 9.42L21.78 10.11L19.37 10.90C18.75 11.10 18.40 11.27 18.19 11.47C17.98 11.69 17.91 11.94 17.91 12.36C17.91 12.84 18.08 13.20 18.44 13.42C18.76 13.64 19.23 13.74 19.85 13.74C20.22 13.74 20.61 13.67 21.02 13.53C21.38 13.41 21.69 13.24 21.95 13.05C22.13 13.45 22.55 13.72 23.19 13.72C23.55 13.72 23.88 13.68 24.18 13.59C24.44 13.52 24.65 13.44 24.78 13.35ZM20.53 12.82C19.98 12.82 19.76 12.67 19.76 12.14C19.76 11.91 19.87 11.73 20.10 11.58C20.29 11.46 20.65 11.32 21.01 11.19L21.78 10.90L21.78 12.38C21.65 12.50 21.45 12.61 21.17 12.70C20.91 12.78 20.69 12.82 20.53 12.82ZM26.30 10.91C26.30 11.30 26.29 11.65 26.28 11.96C26.25 12.60 26.21 13.13 26.16 13.53L28.45 13.53C28.43 13.36 28.40 13.11 28.38 12.80C28.34 12.23 28.31 11.61 28.31 10.91L28.31 5.53C28.31 5.13 28.32 4.76 28.34 4.42C28.36 3.75 28.39 3.19 28.45 2.72L26.16 2.90C26.18 3.08 26.21 3.35 26.23 3.69C26.28 4.36 26.30 5.03 26.30 5.70ZM30.79 10.91C30.79 11.30 30.79 11.65 30.77 11.96C30.74 12.60 30.70 13.13 30.65 13.53L32.94 13.53C32.92 13.36 32.89 13.11 32.87 12.80C32.83 12.23 32.81 11.61 32.81 10.91L32.81 5.53C32.81 5.13 32.82 4.76 32.83 4.42C32.85 3.75 32.89 3.19 32.94 2.72L30.65 2.90C30.67 3.08 30.70 3.35 30.72 3.69C30.77 4.36 30.79 5.03 30.79 5.70ZM36.47 13.40L37.10 13.67C36.93 13.88 36.73 14.13 36.51 14.43C36.16 14.95 35.84 15.44 35.55 15.94C35.35 16.30 35.16 16.64 34.99 16.96L34.91 17.12L34.96 17.40L35.76 17.39C35.83 17.21 36.02 16.87 36.33 16.37C36.74 15.72 37.10 15.19 37.40 14.79C37.85 14.18 38.23 13.73 38.56 13.43C38.85 13.15 39.15 12.83 39.47 12.47C40.08 11.77 40.51 11.07 40.77 10.36C40.96 9.86 41.05 9.30 41.05 8.69C41.05 8.53 41.05 8.41 41.04 8.34L41.03 8.16L40.98 7.74C40.96 7.62 40.96 7.55 40.95 7.51L39.73 7.34C39.77 7.47 39.82 7.64 39.86 7.85C39.90 8.08 39.92 8.34 39.92 8.66C39.92 8.75 39.91 8.93 39.91 9.18C39.84 9.77 39.60 10.42 39.17 11.13C38.93 11.53 38.61 11.98 38.19 12.47C37.68 11.02 37.29 9.92 37.02 9.16C36.94 8.95 36.88 8.74 36.83 8.53C36.72 8.12 36.63 7.76 36.58 7.44L34.18 7.44C34.23 7.55 34.29 7.67 34.36 7.83C34.39 7.92 34.43 7.99 34.45 8.04C34.59 8.37 34.76 8.78 34.95 9.28L35.26 10.10ZM47.29 10.38C47.29 10.77 47.28 11.14 47.26 11.52C47.24 12.24 47.20 12.91 47.15 13.53L52.51 13.53L52.51 12.36C52.33 12.41 52.09 12.45 51.83 12.48C51.16 12.57 50.39 12.63 49.51 12.66C49.47 11.98 49.45 11.21 49.45 10.38L49.45 7.34C49.45 7.17 49.45 6.89 49.46 6.52C49.48 5.81 49.50 5.31 49.52 4.99C49.52 4.80 49.55 4.47 49.58 4.01L49.59 3.87L47.15 3.87L47.22 4.88C47.26 5.69 47.29 6.41 47.29 7.04ZM53.61 5.17L55.34 5.99L56.08 4.38L54.38 3.58ZM53.80 10.91C53.80 11.30 53.79 11.65 53.77 11.96C53.75 12.57 53.71 13.10 53.66 13.53L55.94 13.53C55.92 13.36 55.90 13.11 55.87 12.80C55.83 12.23 55.81 11.61 55.81 10.91L55.81 9.94C55.81 9.54 55.82 9.18 55.83 8.86C55.85 8.24 55.89 7.73 55.94 7.33L53.66 7.51L53.73 8.20C53.77 8.79 53.80 9.43 53.80 10.09ZM57.51 13.20C57.68 13.29 57.89 13.38 58.15 13.48C58.68 13.66 59.21 13.76 59.72 13.76C60.45 13.76 61.18 13.59 61.73 13.28C62.34 12.92 62.70 12.38 62.70 11.63C62.70 11.30 62.62 11.03 62.47 10.79C62.20 10.39 61.75 10.05 61.14 9.78C60.82 9.64 60.56 9.53 60.38 9.44C59.85 9.18 59.57 8.96 59.57 8.64C59.57 8.43 59.68 8.25 59.89 8.13C60.07 8.03 60.31 7.97 60.61 7.97C60.84 7.97 61.05 8.00 61.24 8.06C61.59 8.18 61.86 8.33 62.06 8.53L62.28 7.67C62.13 7.57 61.98 7.50 61.80 7.44C61.39 7.29 60.97 7.22 60.53 7.22C60.10 7.22 59.69 7.27 59.30 7.39C58.84 7.53 58.48 7.74 58.21 8.02C57.89 8.34 57.73 8.74 57.73 9.20C57.73 9.53 57.81 9.81 57.96 10.04C58.23 10.45 58.67 10.81 59.28 11.10L59.60 11.26C59.79 11.35 59.93 11.42 60.03 11.47C60.55 11.73 60.82 11.94 60.82 12.23C60.82 12.48 60.72 12.67 60.52 12.80C60.31 12.92 60.07 12.99 59.77 12.99C59.51 12.99 59.25 12.95 59.00 12.88C58.52 12.75 58.08 12.57 57.69 12.33ZM63.64 8.30L64.45 8.30L64.45 10.43C64.45 11.66 64.60 12.46 64.99 12.97C65.38 13.51 66.04 13.76 67.05 13.76C67.42 13.76 67.73 13.73 67.99 13.66C68.52 13.54 68.92 13.38 69.21 13.16L69.05 12.32C68.92 12.43 68.78 12.51 68.63 12.59C68.29 12.76 67.96 12.85 67.65 12.85C67.14 12.85 66.85 12.63 66.68 12.17C66.52 11.75 66.47 11.10 66.47 10.06L66.47 8.32L67.11 8.35L67.45 8.37L68.14 8.42C68.26 8.44 68.33 8.44 68.34 8.45L68.55 7.44L66.47 7.44C66.47 6.70 66.47 6.06 66.48 5.53C66.49 5.38 66.49 5.19 66.49 4.96L65.25 4.96C65.11 5.16 64.97 5.37 64.85 5.60C64.58 6.08 64.45 6.49 64.45 6.82L64.45 7.50C64.37 7.51 64.25 7.54 64.09 7.57C63.88 7.64 63.73 7.69 63.64 7.73ZM73.57 7.22C72.91 7.22 72.30 7.32 71.75 7.53C71.13 7.77 70.64 8.12 70.30 8.57C69.91 9.10 69.71 9.75 69.71 10.51C69.71 11.59 70.13 12.42 70.83 12.97C71.48 13.50 72.40 13.76 73.40 13.76C73.80 13.76 74.21 13.68 74.64 13.52C75.03 13.38 75.35 13.22 75.49 13.06L75.34 12.34C75.15 12.47 74.94 12.58 74.68 12.67C74.30 12.82 73.93 12.89 73.56 12.89C73.12 12.89 72.70 12.69 72.38 12.32C72.04 11.92 71.83 11.33 71.83 10.58L71.83 10.43C71.83 10.39 71.83 10.35 71.84 10.28L75.15 10.28L75.61 10.28C75.71 10.28 75.86 10.28 76.05 10.28L76.43 10.28C76.51 10.29 76.61 10.29 76.72 10.29L76.87 9.54L76.72 9.54C76.66 9.55 76.56 9.55 76.41 9.55L76.06 9.55C75.99 9.55 75.89 9.55 75.78 9.55C76.06 9.44 76.21 9.21 76.21 8.72C76.21 8.38 76.06 8.08 75.76 7.83C75.50 7.63 75.16 7.47 74.72 7.36C74.35 7.27 73.96 7.22 73.57 7.22ZM73.54 8.09C74.17 8.09 74.57 8.42 74.57 8.97C74.57 9.18 74.49 9.33 74.31 9.42C74.19 9.49 74.02 9.53 73.80 9.53C73.39 9.53 73.07 9.53 72.86 9.52L71.92 9.52C72.03 9.05 72.27 8.68 72.57 8.44C72.85 8.21 73.20 8.09 73.54 8.09ZM80.30 10.64C80.30 10.08 80.45 9.51 80.73 9.06C81.02 8.59 81.42 8.31 81.87 8.31C82.81 8.31 83.20 8.90 83.20 10.19L83.20 11.09C83.20 11.46 83.19 11.79 83.17 12.10C83.15 12.68 83.11 13.16 83.06 13.53L85.34 13.53L85.30 13.09L85.28 12.93C85.25 12.37 85.23 11.73 85.23 11.00L85.23 9.79C85.23 9.02 85.06 8.42 84.72 8.01C84.29 7.48 83.61 7.22 82.66 7.22C82.21 7.22 81.72 7.38 81.29 7.64C80.88 7.90 80.54 8.25 80.34 8.62C80.36 8.17 80.38 7.84 80.40 7.63C80.40 7.64 80.41 7.55 80.43 7.33L78.14 7.51L78.16 7.69L78.21 8.20C78.26 8.79 78.28 9.43 78.28 10.09L78.28 10.91C78.28 11.30 78.27 11.65 78.26 11.96C78.23 12.60 78.19 13.13 78.14 13.53L80.43 13.53L80.41 13.31C80.40 13.17 80.38 12.97 80.37 12.72C80.32 12.04 80.30 11.35 80.30 10.64ZM87.25 5.17L88.97 5.99L89.72 4.38L88.02 3.58ZM87.43 10.91C87.43 11.30 87.42 11.65 87.41 11.96C87.38 12.57 87.35 13.10 87.30 13.53L89.58 13.53C89.56 13.36 89.53 13.11 89.51 12.80C89.47 12.23 89.45 11.61 89.45 10.91L89.45 9.94C89.45 9.54 89.45 9.18 89.47 8.86C89.49 8.24 89.52 7.73 89.58 7.33L87.30 7.51L87.36 8.20C87.41 8.79 87.43 9.43 87.43 10.09ZM93.93 10.64C93.93 10.08 94.09 9.51 94.37 9.06C94.65 8.59 95.05 8.31 95.50 8.31C96.45 8.31 96.83 8.90 96.83 10.19L96.83 11.09C96.83 11.46 96.82 11.79 96.81 12.10C96.78 12.68 96.75 13.16 96.70 13.53L98.97 13.53L98.93 13.09L98.92 12.93C98.88 12.37 98.86 11.73 98.86 11.00L98.86 9.79C98.86 9.02 98.69 8.42 98.36 8.01C97.93 7.48 97.24 7.22 96.30 7.22C95.84 7.22 95.35 7.38 94.93 7.64C94.51 7.90 94.17 8.25 93.98 8.62C94.00 8.17 94.02 7.84 94.04 7.63C94.04 7.64 94.05 7.55 94.07 7.33L91.78 7.51L91.80 7.69L91.85 8.20C91.90 8.79 91.92 9.43 91.92 10.09L91.92 10.91C91.92 11.30 91.91 11.65 91.90 11.96C91.87 12.60 91.83 13.13 91.78 13.53L94.07 13.53L94.05 13.31C94.03 13.17 94.02 12.97 94.00 12.72C93.95 12.04 93.93 11.35 93.93 10.64ZM107.46 14.92C107.23 14.46 106.82 14.11 106.24 13.87C105.72 13.66 105.08 13.50 104.33 13.38C104.07 13.34 103.73 13.29 103.31 13.22C102.82 13.12 102.49 13.03 102.31 12.96C102.10 12.87 102.00 12.78 102.00 12.61C102.00 12.41 102.10 12.25 102.40 12.05C102.77 12.16 103.18 12.21 103.62 12.21C104.41 12.21 105.18 12.04 105.76 11.67C106.41 11.26 106.79 10.62 106.79 9.73C106.79 9.18 106.62 8.70 106.30 8.31C106.16 8.15 105.99 8.01 105.81 7.89L107.13 8.13L107.30 7.08C106.81 7.13 106.34 7.16 105.89 7.19C105.64 7.21 105.45 7.22 105.29 7.22C105.02 7.25 104.83 7.25 104.69 7.26C104.36 7.28 104.01 7.29 103.65 7.29L103.62 7.29C102.80 7.29 102.04 7.47 101.46 7.84C100.82 8.25 100.45 8.89 100.45 9.78C100.45 10.61 100.82 11.23 101.46 11.64C101.55 11.70 101.65 11.75 101.76 11.82C101.58 11.90 101.40 12.03 101.22 12.21C100.88 12.55 100.72 12.90 100.72 13.27C100.72 13.57 100.79 13.81 100.93 14C101.09 14.21 101.31 14.39 101.61 14.54L100.26 15.93C100.25 16.27 100.35 16.65 100.56 17.00C100.81 17.41 101.18 17.73 101.68 17.96C102.27 18.25 103.01 18.39 103.88 18.39C104.78 18.39 105.70 18.19 106.41 17.77C107.18 17.32 107.65 16.67 107.65 15.79C107.65 15.46 107.58 15.18 107.46 14.92ZM102.72 8.46C102.94 8.20 103.23 8.06 103.59 8.06C103.96 8.06 104.29 8.20 104.52 8.46C104.76 8.73 104.91 9.16 104.91 9.72C104.91 10.30 104.78 10.74 104.52 11.05C104.31 11.32 104.01 11.45 103.65 11.45C103.27 11.45 102.96 11.32 102.73 11.05C102.47 10.75 102.33 10.33 102.33 9.79C102.33 9.21 102.46 8.77 102.72 8.46ZM105.03 17.09C104.62 17.26 104.08 17.35 103.66 17.35C102.06 17.35 101.22 16.87 101.22 16.09C101.22 16.05 101.23 16.01 101.27 15.96C101.33 15.84 101.43 15.71 101.56 15.57L101.75 15.34C101.91 15.17 102.08 14.99 102.28 14.79L102.28 14.78L102.33 14.80C102.86 14.94 103.57 15.07 104.19 15.18C104.50 15.24 104.77 15.31 105.00 15.39C105.51 15.58 105.79 15.83 105.79 16.23C105.79 16.60 105.54 16.89 105.03 17.09Z"></path></g><!----><g data-v-423bf9ae="" id="3750daf3-eee0-4dba-8dbc-d2d04c219d60" transform="matrix(1.0000022888183593,0,0,1.0000022888183593,-19.56225585915235,-4.000217437979877)" stroke="none" fill="#335eea"><path d="M59.468 5c-5.646.214-11.232 2.026-16.08 4.717-5.906 3.758-8.626 8.375-10.65 16.299 1.395 3.306 2.871 6.127 3.086 9.93.732 3.59.41 7.724 2.915 10.72 3.838.903.975-5.571 1.675-7.708.318-7.676 2.666-15.723 8.272-21.466 4.676-4.731 13.12-6.868 18.833-2.487 3.525 2.466 6.814 5.774 7.329 10.07 2.038 10.263-1.977 20.579-6.761 29.63-4.21 6.945-9.904 13.11-16.737 17.826-5.797 4.148-8.446 11.117-14.233 15.237-3.312 2.097-7.77 2.198-11.093.074-1.655-1.445-5.717-4.283-5.583-.105 3.125 4.234 4.146 6.044 8.69 7.052 7.648 1.7 14.055-7.26 17.372-12.628 9.589-11.942 28.538-23.765 31.316-39.467 2.778-15.703 1.829-14.945-.028-21.923-1.857-6.978-7.292-12.695-14.226-15.23-1.326-.378-2.715-.54-4.097-.541zm2.761 7.843c-.456.37.646.118 0 0zm2.35.92c-1.017.008 2.212.672 0 0zm-4.628 5.506c-.77.039-1.42.551-1.754 1.803.36 3.885 4.896 6.39 3.421 10.94-3.261 4.99-5.388-3.763-8.904-4.064-3.813-1.525-9.994 4.871-6.725 7.792 3.705.173 8.351-1.368 10.63 3.262 2.277 4.63 2.431 10.693.385 15.897-1.801 6.069-6.954 10.958-12.89 13.013-6.835 2.85-13.684.195-19.705-2.22-.367 3.786-.604 8.336 3.965 9.252 4.21.752 8.812.017 12.965-1.665 8.093-3.531 14.742-9.648 19.2-17.216 2.677-5.128 4.05-10.744 5.151-16.262.662-5.54 1.22-11.463-.936-16.492-.501-1.58-2.983-4.132-4.803-4.04zM28.413 40.417c-1.554 3.804-1.885 7.99-2.004 12.08.117 4.373 5.504.083 6.615-1.517 2.31-3.84-1.335-8.661-4.611-10.563zm16.797 1.55c-.105 2.176 2.546 8.851-2.928 10.84-3.25 1.133-7.261-.442-8.887 4.542-.138 4.006 3.896 3.838 7.044 3.089 4.671-.546 8.566-4.874 9.922-9.2 1.647-4.223-.677-9.275-5.15-9.272z"></path></g><!----></svg>