<svg data-v-423bf9ae="" xmlns="http://www.w3.org/2000/svg" viewBox="0 0 39.41609834165317 60" class="icon"><!----><!----><!----><!----><g data-v-423bf9ae="" id="505e062c-2978-4a40-a9f1-4f43c3c38ae6" transform="matrix(0.6666651407912528,0,0,0.6666651407912528,-13.625142415687634,-3.3333257039562625)" stroke="none" fill="black"><path d="M59.468 5c-5.646.214-11.232 2.026-16.08 4.717-5.906 3.758-8.626 8.375-10.65 16.299 1.395 3.306 2.871 6.127 3.086 9.93.732 3.59.41 7.724 2.915 10.72 3.838.903.975-5.571 1.675-7.708.318-7.676 2.666-15.723 8.272-21.466 4.676-4.731 13.12-6.868 18.833-2.487 3.525 2.466 6.814 5.774 7.329 10.07 2.038 10.263-1.977 20.579-6.761 29.63-4.21 6.945-9.904 13.11-16.737 17.826-5.797 4.148-8.446 11.117-14.233 15.237-3.312 2.097-7.77 2.198-11.093.074-1.655-1.445-5.717-4.283-5.583-.105 3.125 4.234 4.146 6.044 8.69 7.052 7.648 1.7 14.055-7.26 17.372-12.628 9.589-11.942 28.538-23.765 31.316-39.467 2.778-15.703 1.829-14.945-.028-21.923-1.857-6.978-7.292-12.695-14.226-15.23-1.326-.378-2.715-.54-4.097-.541zm2.761 7.843c-.456.37.646.118 0 0zm2.35.92c-1.017.008 2.212.672 0 0zm-4.628 5.506c-.77.039-1.42.551-1.754 1.803.36 3.885 4.896 6.39 3.421 10.94-3.261 4.99-5.388-3.763-8.904-4.064-3.813-1.525-9.994 4.871-6.725 7.792 3.705.173 8.351-1.368 10.63 3.262 2.277 4.63 2.431 10.693.385 15.897-1.801 6.069-6.954 10.958-12.89 13.013-6.835 2.85-13.684.195-19.705-2.22-.367 3.786-.604 8.336 3.965 9.252 4.21.752 8.812.017 12.965-1.665 8.093-3.531 14.742-9.648 19.2-17.216 2.677-5.128 4.05-10.744 5.151-16.262.662-5.54 1.22-11.463-.936-16.492-.501-1.58-2.983-4.132-4.803-4.04zM28.413 40.417c-1.554 3.804-1.885 7.99-2.004 12.08.117 4.373 5.504.083 6.615-1.517 2.31-3.84-1.335-8.661-4.611-10.563zm16.797 1.55c-.105 2.176 2.546 8.851-2.928 10.84-3.25 1.133-7.261-.442-8.887 4.542-.138 4.006 3.896 3.838 7.044 3.089 4.671-.546 8.566-4.874 9.922-9.2 1.647-4.223-.677-9.275-5.15-9.272z"></path></g><!----></svg>